<svg xmlns="http://www.w3.org/2000/svg" viewBox="0 0 100 100" preserveAspectRatio="xMidYMid" width="53" height="53" style="shape-rendering: auto; display: block; background: transparent;" xmlns:xlink="http://www.w3.org/1999/xlink"><g><g transform="rotate(0 50 50)">
  <rect fill="#000000" height="11" width="13" ry="5.5" rx="6.5" y="27.5" x="43.5">
    <animate repeatCount="indefinite" begin="-1.0996892182644036s" dur="1.1235955056179776s" keyTimes="0;1" values="1;0" attributeName="opacity"></animate>
  </rect>
</g><g transform="rotate(7.659574468085107 50 50)">
  <rect fill="#000000" height="11" width="13" ry="5.5" rx="6.5" y="27.5" x="43.5">
    <animate repeatCount="indefinite" begin="-1.0757829309108295s" dur="1.1235955056179776s" keyTimes="0;1" values="1;0" attributeName="opacity"></animate>
  </rect>
</g><g transform="rotate(15.319148936170214 50 50)">
  <rect fill="#000000" height="11" width="13" ry="5.5" rx="6.5" y="27.5" x="43.5">
    <animate repeatCount="indefinite" begin="-1.0518766435572555s" dur="1.1235955056179776s" keyTimes="0;1" values="1;0" attributeName="opacity"></animate>
  </rect>
</g><g transform="rotate(22.97872340425532 50 50)">
  <rect fill="#000000" height="11" width="13" ry="5.5" rx="6.5" y="27.5" x="43.5">
    <animate repeatCount="indefinite" begin="-1.0279703562036817s" dur="1.1235955056179776s" keyTimes="0;1" values="1;0" attributeName="opacity"></animate>
  </rect>
</g><g transform="rotate(30.638297872340427 50 50)">
  <rect fill="#000000" height="11" width="13" ry="5.5" rx="6.5" y="27.5" x="43.5">
    <animate repeatCount="indefinite" begin="-1.0040640688501077s" dur="1.1235955056179776s" keyTimes="0;1" values="1;0" attributeName="opacity"></animate>
  </rect>
</g><g transform="rotate(38.297872340425535 50 50)">
  <rect fill="#000000" height="11" width="13" ry="5.5" rx="6.5" y="27.5" x="43.5">
    <animate repeatCount="indefinite" begin="-0.9801577814965337s" dur="1.1235955056179776s" keyTimes="0;1" values="1;0" attributeName="opacity"></animate>
  </rect>
</g><g transform="rotate(45.95744680851064 50 50)">
  <rect fill="#000000" height="11" width="13" ry="5.5" rx="6.5" y="27.5" x="43.5">
    <animate repeatCount="indefinite" begin="-0.9562514941429596s" dur="1.1235955056179776s" keyTimes="0;1" values="1;0" attributeName="opacity"></animate>
  </rect>
</g><g transform="rotate(53.61702127659574 50 50)">
  <rect fill="#000000" height="11" width="13" ry="5.5" rx="6.5" y="27.5" x="43.5">
    <animate repeatCount="indefinite" begin="-0.9323452067893856s" dur="1.1235955056179776s" keyTimes="0;1" values="1;0" attributeName="opacity"></animate>
  </rect>
</g><g transform="rotate(61.276595744680854 50 50)">
  <rect fill="#000000" height="11" width="13" ry="5.5" rx="6.5" y="27.5" x="43.5">
    <animate repeatCount="indefinite" begin="-0.9084389194358117s" dur="1.1235955056179776s" keyTimes="0;1" values="1;0" attributeName="opacity"></animate>
  </rect>
</g><g transform="rotate(68.93617021276596 50 50)">
  <rect fill="#000000" height="11" width="13" ry="5.5" rx="6.5" y="27.5" x="43.5">
    <animate repeatCount="indefinite" begin="-0.8845326320822376s" dur="1.1235955056179776s" keyTimes="0;1" values="1;0" attributeName="opacity"></animate>
  </rect>
</g><g transform="rotate(76.59574468085107 50 50)">
  <rect fill="#000000" height="11" width="13" ry="5.5" rx="6.5" y="27.5" x="43.5">
    <animate repeatCount="indefinite" begin="-0.8606263447286637s" dur="1.1235955056179776s" keyTimes="0;1" values="1;0" attributeName="opacity"></animate>
  </rect>
</g><g transform="rotate(84.25531914893617 50 50)">
  <rect fill="#000000" height="11" width="13" ry="5.5" rx="6.5" y="27.5" x="43.5">
    <animate repeatCount="indefinite" begin="-0.8367200573750897s" dur="1.1235955056179776s" keyTimes="0;1" values="1;0" attributeName="opacity"></animate>
  </rect>
</g><g transform="rotate(91.91489361702128 50 50)">
  <rect fill="#000000" height="11" width="13" ry="5.5" rx="6.5" y="27.5" x="43.5">
    <animate repeatCount="indefinite" begin="-0.8128137700215157s" dur="1.1235955056179776s" keyTimes="0;1" values="1;0" attributeName="opacity"></animate>
  </rect>
</g><g transform="rotate(99.57446808510639 50 50)">
  <rect fill="#000000" height="11" width="13" ry="5.5" rx="6.5" y="27.5" x="43.5">
    <animate repeatCount="indefinite" begin="-0.7889074826679418s" dur="1.1235955056179776s" keyTimes="0;1" values="1;0" attributeName="opacity"></animate>
  </rect>
</g><g transform="rotate(107.23404255319149 50 50)">
  <rect fill="#000000" height="11" width="13" ry="5.5" rx="6.5" y="27.5" x="43.5">
    <animate repeatCount="indefinite" begin="-0.7650011953143677s" dur="1.1235955056179776s" keyTimes="0;1" values="1;0" attributeName="opacity"></animate>
  </rect>
</g><g transform="rotate(114.8936170212766 50 50)">
  <rect fill="#000000" height="11" width="13" ry="5.5" rx="6.5" y="27.5" x="43.5">
    <animate repeatCount="indefinite" begin="-0.7410949079607937s" dur="1.1235955056179776s" keyTimes="0;1" values="1;0" attributeName="opacity"></animate>
  </rect>
</g><g transform="rotate(122.55319148936171 50 50)">
  <rect fill="#000000" height="11" width="13" ry="5.5" rx="6.5" y="27.5" x="43.5">
    <animate repeatCount="indefinite" begin="-0.7171886206072198s" dur="1.1235955056179776s" keyTimes="0;1" values="1;0" attributeName="opacity"></animate>
  </rect>
</g><g transform="rotate(130.2127659574468 50 50)">
  <rect fill="#000000" height="11" width="13" ry="5.5" rx="6.5" y="27.5" x="43.5">
    <animate repeatCount="indefinite" begin="-0.6932823332536457s" dur="1.1235955056179776s" keyTimes="0;1" values="1;0" attributeName="opacity"></animate>
  </rect>
</g><g transform="rotate(137.87234042553192 50 50)">
  <rect fill="#000000" height="11" width="13" ry="5.5" rx="6.5" y="27.5" x="43.5">
    <animate repeatCount="indefinite" begin="-0.6693760459000717s" dur="1.1235955056179776s" keyTimes="0;1" values="1;0" attributeName="opacity"></animate>
  </rect>
</g><g transform="rotate(145.53191489361703 50 50)">
  <rect fill="#000000" height="11" width="13" ry="5.5" rx="6.5" y="27.5" x="43.5">
    <animate repeatCount="indefinite" begin="-0.6454697585464978s" dur="1.1235955056179776s" keyTimes="0;1" values="1;0" attributeName="opacity"></animate>
  </rect>
</g><g transform="rotate(153.19148936170214 50 50)">
  <rect fill="#000000" height="11" width="13" ry="5.5" rx="6.5" y="27.5" x="43.5">
    <animate repeatCount="indefinite" begin="-0.6215634711929238s" dur="1.1235955056179776s" keyTimes="0;1" values="1;0" attributeName="opacity"></animate>
  </rect>
</g><g transform="rotate(160.85106382978722 50 50)">
  <rect fill="#000000" height="11" width="13" ry="5.5" rx="6.5" y="27.5" x="43.5">
    <animate repeatCount="indefinite" begin="-0.5976571838393497s" dur="1.1235955056179776s" keyTimes="0;1" values="1;0" attributeName="opacity"></animate>
  </rect>
</g><g transform="rotate(168.51063829787233 50 50)">
  <rect fill="#000000" height="11" width="13" ry="5.5" rx="6.5" y="27.5" x="43.5">
    <animate repeatCount="indefinite" begin="-0.5737508964857758s" dur="1.1235955056179776s" keyTimes="0;1" values="1;0" attributeName="opacity"></animate>
  </rect>
</g><g transform="rotate(176.17021276595744 50 50)">
  <rect fill="#000000" height="11" width="13" ry="5.5" rx="6.5" y="27.5" x="43.5">
    <animate repeatCount="indefinite" begin="-0.5498446091322018s" dur="1.1235955056179776s" keyTimes="0;1" values="1;0" attributeName="opacity"></animate>
  </rect>
</g><g transform="rotate(183.82978723404256 50 50)">
  <rect fill="#000000" height="11" width="13" ry="5.5" rx="6.5" y="27.5" x="43.5">
    <animate repeatCount="indefinite" begin="-0.5259383217786278s" dur="1.1235955056179776s" keyTimes="0;1" values="1;0" attributeName="opacity"></animate>
  </rect>
</g><g transform="rotate(191.48936170212767 50 50)">
  <rect fill="#000000" height="11" width="13" ry="5.5" rx="6.5" y="27.5" x="43.5">
    <animate repeatCount="indefinite" begin="-0.5020320344250538s" dur="1.1235955056179776s" keyTimes="0;1" values="1;0" attributeName="opacity"></animate>
  </rect>
</g><g transform="rotate(199.14893617021278 50 50)">
  <rect fill="#000000" height="11" width="13" ry="5.5" rx="6.5" y="27.5" x="43.5">
    <animate repeatCount="indefinite" begin="-0.4781257470714798s" dur="1.1235955056179776s" keyTimes="0;1" values="1;0" attributeName="opacity"></animate>
  </rect>
</g><g transform="rotate(206.80851063829786 50 50)">
  <rect fill="#000000" height="11" width="13" ry="5.5" rx="6.5" y="27.5" x="43.5">
    <animate repeatCount="indefinite" begin="-0.45421945971790584s" dur="1.1235955056179776s" keyTimes="0;1" values="1;0" attributeName="opacity"></animate>
  </rect>
</g><g transform="rotate(214.46808510638297 50 50)">
  <rect fill="#000000" height="11" width="13" ry="5.5" rx="6.5" y="27.5" x="43.5">
    <animate repeatCount="indefinite" begin="-0.43031317236433186s" dur="1.1235955056179776s" keyTimes="0;1" values="1;0" attributeName="opacity"></animate>
  </rect>
</g><g transform="rotate(222.12765957446808 50 50)">
  <rect fill="#000000" height="11" width="13" ry="5.5" rx="6.5" y="27.5" x="43.5">
    <animate repeatCount="indefinite" begin="-0.40640688501075783s" dur="1.1235955056179776s" keyTimes="0;1" values="1;0" attributeName="opacity"></animate>
  </rect>
</g><g transform="rotate(229.7872340425532 50 50)">
  <rect fill="#000000" height="11" width="13" ry="5.5" rx="6.5" y="27.5" x="43.5">
    <animate repeatCount="indefinite" begin="-0.38250059765718386s" dur="1.1235955056179776s" keyTimes="0;1" values="1;0" attributeName="opacity"></animate>
  </rect>
</g><g transform="rotate(237.4468085106383 50 50)">
  <rect fill="#000000" height="11" width="13" ry="5.5" rx="6.5" y="27.5" x="43.5">
    <animate repeatCount="indefinite" begin="-0.3585943103036099s" dur="1.1235955056179776s" keyTimes="0;1" values="1;0" attributeName="opacity"></animate>
  </rect>
</g><g transform="rotate(245.10638297872342 50 50)">
  <rect fill="#000000" height="11" width="13" ry="5.5" rx="6.5" y="27.5" x="43.5">
    <animate repeatCount="indefinite" begin="-0.33468802295003586s" dur="1.1235955056179776s" keyTimes="0;1" values="1;0" attributeName="opacity"></animate>
  </rect>
</g><g transform="rotate(252.7659574468085 50 50)">
  <rect fill="#000000" height="11" width="13" ry="5.5" rx="6.5" y="27.5" x="43.5">
    <animate repeatCount="indefinite" begin="-0.3107817355964619s" dur="1.1235955056179776s" keyTimes="0;1" values="1;0" attributeName="opacity"></animate>
  </rect>
</g><g transform="rotate(260.4255319148936 50 50)">
  <rect fill="#000000" height="11" width="13" ry="5.5" rx="6.5" y="27.5" x="43.5">
    <animate repeatCount="indefinite" begin="-0.2868754482428879s" dur="1.1235955056179776s" keyTimes="0;1" values="1;0" attributeName="opacity"></animate>
  </rect>
</g><g transform="rotate(268.0851063829787 50 50)">
  <rect fill="#000000" height="11" width="13" ry="5.5" rx="6.5" y="27.5" x="43.5">
    <animate repeatCount="indefinite" begin="-0.2629691608893139s" dur="1.1235955056179776s" keyTimes="0;1" values="1;0" attributeName="opacity"></animate>
  </rect>
</g><g transform="rotate(275.74468085106383 50 50)">
  <rect fill="#000000" height="11" width="13" ry="5.5" rx="6.5" y="27.5" x="43.5">
    <animate repeatCount="indefinite" begin="-0.2390628735357399s" dur="1.1235955056179776s" keyTimes="0;1" values="1;0" attributeName="opacity"></animate>
  </rect>
</g><g transform="rotate(283.40425531914894 50 50)">
  <rect fill="#000000" height="11" width="13" ry="5.5" rx="6.5" y="27.5" x="43.5">
    <animate repeatCount="indefinite" begin="-0.21515658618216593s" dur="1.1235955056179776s" keyTimes="0;1" values="1;0" attributeName="opacity"></animate>
  </rect>
</g><g transform="rotate(291.06382978723406 50 50)">
  <rect fill="#000000" height="11" width="13" ry="5.5" rx="6.5" y="27.5" x="43.5">
    <animate repeatCount="indefinite" begin="-0.19125029882859193s" dur="1.1235955056179776s" keyTimes="0;1" values="1;0" attributeName="opacity"></animate>
  </rect>
</g><g transform="rotate(298.72340425531917 50 50)">
  <rect fill="#000000" height="11" width="13" ry="5.5" rx="6.5" y="27.5" x="43.5">
    <animate repeatCount="indefinite" begin="-0.16734401147501793s" dur="1.1235955056179776s" keyTimes="0;1" values="1;0" attributeName="opacity"></animate>
  </rect>
</g><g transform="rotate(306.3829787234043 50 50)">
  <rect fill="#000000" height="11" width="13" ry="5.5" rx="6.5" y="27.5" x="43.5">
    <animate repeatCount="indefinite" begin="-0.14343772412144395s" dur="1.1235955056179776s" keyTimes="0;1" values="1;0" attributeName="opacity"></animate>
  </rect>
</g><g transform="rotate(314.0425531914894 50 50)">
  <rect fill="#000000" height="11" width="13" ry="5.5" rx="6.5" y="27.5" x="43.5">
    <animate repeatCount="indefinite" begin="-0.11953143676786995s" dur="1.1235955056179776s" keyTimes="0;1" values="1;0" attributeName="opacity"></animate>
  </rect>
</g><g transform="rotate(321.70212765957444 50 50)">
  <rect fill="#000000" height="11" width="13" ry="5.5" rx="6.5" y="27.5" x="43.5">
    <animate repeatCount="indefinite" begin="-0.09562514941429597s" dur="1.1235955056179776s" keyTimes="0;1" values="1;0" attributeName="opacity"></animate>
  </rect>
</g><g transform="rotate(329.36170212765956 50 50)">
  <rect fill="#000000" height="11" width="13" ry="5.5" rx="6.5" y="27.5" x="43.5">
    <animate repeatCount="indefinite" begin="-0.07171886206072198s" dur="1.1235955056179776s" keyTimes="0;1" values="1;0" attributeName="opacity"></animate>
  </rect>
</g><g transform="rotate(337.02127659574467 50 50)">
  <rect fill="#000000" height="11" width="13" ry="5.5" rx="6.5" y="27.5" x="43.5">
    <animate repeatCount="indefinite" begin="-0.04781257470714798s" dur="1.1235955056179776s" keyTimes="0;1" values="1;0" attributeName="opacity"></animate>
  </rect>
</g><g transform="rotate(344.6808510638298 50 50)">
  <rect fill="#000000" height="11" width="13" ry="5.5" rx="6.5" y="27.5" x="43.5">
    <animate repeatCount="indefinite" begin="-0.02390628735357399s" dur="1.1235955056179776s" keyTimes="0;1" values="1;0" attributeName="opacity"></animate>
  </rect>
</g><g transform="rotate(352.3404255319149 50 50)">
  <rect fill="#000000" height="11" width="13" ry="5.5" rx="6.5" y="27.5" x="43.5">
    <animate repeatCount="indefinite" begin="0s" dur="1.1235955056179776s" keyTimes="0;1" values="1;0" attributeName="opacity"></animate>
  </rect>
</g><g></g></g><!-- [ldio] generated by https://loading.io --></svg>